<svg width="21" height="20" viewBox="0 0 21 20" fill="none" xmlns="http://www.w3.org/2000/svg">
<path d="M5.25 11L6.03446 12.5689C6.29995 13.0999 6.43269 13.3654 6.61003 13.5954C6.76739 13.7996 6.95041 13.9826 7.15455 14.14C7.38462 14.3173 7.6501 14.4501 8.18108 14.7155L9.75 15.5L8.18108 16.2845C7.6501 16.5499 7.38462 16.6827 7.15455 16.86C6.95041 17.0174 6.76739 17.2004 6.61003 17.4046C6.43269 17.6346 6.29995 17.9001 6.03446 18.4311L5.25 20L4.46554 18.4311C4.20005 17.9001 4.06731 17.6346 3.88997 17.4046C3.73261 17.2004 3.54959 17.0174 3.34545 16.86C3.11538 16.6827 2.8499 16.5499 2.31892 16.2845L0.75 15.5L2.31892 14.7155C2.8499 14.4501 3.11538 14.3173 3.34545 14.14C3.54959 13.9826 3.73261 13.7996 3.88997 13.5954C4.06731 13.3654 4.20005 13.0999 4.46554 12.5689L5.25 11Z" fill="#A0A0A0"/>
<path d="M13.75 0L14.9286 3.06442C15.2106 3.79765 15.3516 4.16426 15.5709 4.47264C15.7653 4.74595 16.004 4.98475 16.2774 5.17909C16.5857 5.39836 16.9524 5.53937 17.6856 5.82138L20.75 7L17.6856 8.17862C16.9524 8.46063 16.5857 8.60164 16.2774 8.82091C16.004 9.01525 15.7653 9.25405 15.5709 9.52736C15.3516 9.83574 15.2106 10.2024 14.9286 10.9356L13.75 14L12.5714 10.9356C12.2894 10.2024 12.1484 9.83574 11.9291 9.52736C11.7347 9.25405 11.496 9.01525 11.2226 8.82091C10.9143 8.60164 10.5476 8.46063 9.81442 8.17862L6.75 7L9.81442 5.82138C10.5476 5.53937 10.9143 5.39836 11.2226 5.17909C11.496 4.98475 11.7347 4.74595 11.9291 4.47264C12.1484 4.16426 12.2894 3.79765 12.5714 3.06442L13.75 0Z" fill="#A0A0A0"/>
</svg>
