<svg width="18" height="20" viewBox="0 0 18 20" fill="none" xmlns="http://www.w3.org/2000/svg">
<path d="M14.4583 10.6277C14.4331 8.09423 16.5242 6.87915 16.6177 6.81776C15.4424 5.09941 13.6115 4.86363 12.9598 4.8368C11.4029 4.67866 9.9203 5.75391 9.13043 5.75391C8.3422 5.75391 7.12183 4.85997 5.83073 4.88274C4.13229 4.90794 2.56679 5.87058 1.69278 7.39095C-0.0711054 10.4508 1.24154 14.9855 2.9603 17.469C3.80057 18.6828 4.80264 20.0487 6.11732 19.9987C7.38444 19.9487 7.8625 19.1792 9.39427 19.1792C10.926 19.1792 11.3561 19.9987 12.6964 19.9731C14.0591 19.9483 14.9229 18.7361 15.7563 17.5173C16.7209 16.1071 17.1181 14.7416 17.1417 14.6725C17.112 14.6587 14.4855 13.6526 14.4583 10.6277Z" fill="white"/>
<path d="M11.9369 3.1932C12.6341 2.34683 13.1065 1.17077 12.978 0C11.9719 0.0406518 10.754 0.668723 10.0316 1.51428C9.3844 2.26471 8.81852 3.45947 8.97015 4.6091C10.0926 4.6961 11.2373 4.03795 11.9369 3.1932Z" fill="white"/>
</svg>
