<svg width="52" height="24" viewBox="0 0 52 24" fill="none" xmlns="http://www.w3.org/2000/svg">
<rect x="0.75" y="0.750342" width="49.7243" height="22.4993" rx="3.25" stroke="black" stroke-width="1.5"/>
<path d="M16.3398 7.54735C15.9973 7.95266 15.4493 8.27233 14.9013 8.22667C14.8328 7.67865 15.1011 7.09638 15.415 6.73674C15.7576 6.32002 16.357 6.02318 16.8422 6.00034C16.8993 6.57119 16.6766 7.13063 16.3398 7.54735ZM16.8365 8.33513C16.043 8.28946 15.3637 8.7861 14.9869 8.7861C14.6044 8.7861 14.0279 8.35796 13.3999 8.36938C12.5836 8.3808 11.8244 8.84319 11.4077 9.57959C10.5514 11.0524 11.185 13.233 12.0128 14.4318C12.4181 15.0255 12.9033 15.6763 13.5427 15.6535C14.1478 15.6306 14.3875 15.2596 15.1182 15.2596C15.8546 15.2596 16.0658 15.6535 16.7052 15.642C17.3674 15.6306 17.7841 15.0484 18.1894 14.4547C18.6518 13.7811 18.8402 13.1246 18.8516 13.0903C18.8402 13.0789 17.5729 12.5937 17.5615 11.1323C17.55 9.91068 18.5604 9.32841 18.6061 9.29416C18.0353 8.4493 17.1447 8.35796 16.8365 8.33513ZM21.4204 6.67966V15.5792H22.8019V12.5366H24.7142C26.461 12.5366 27.6884 11.3378 27.6884 9.60242C27.6884 7.86703 26.4839 6.67966 24.7599 6.67966H21.4204ZM22.8019 7.8442H24.3946C25.5933 7.8442 26.2784 8.48355 26.2784 9.60813C26.2784 10.7327 25.5933 11.3778 24.3888 11.3778H22.8019V7.8442ZM30.2115 15.6477C31.0792 15.6477 31.8841 15.2082 32.2495 14.5118H32.278V15.5792H33.5567V11.1494C33.5567 9.86501 32.5292 9.03728 30.9479 9.03728C29.4809 9.03728 28.3962 9.87643 28.3563 11.0296H29.6007C29.7035 10.4815 30.2115 10.1219 30.908 10.1219C31.7528 10.1219 32.2267 10.5158 32.2267 11.2408V11.7317L30.5027 11.8345C28.8986 11.9315 28.0309 12.588 28.0309 13.7297C28.0309 14.8828 28.9271 15.6477 30.2115 15.6477ZM30.5826 14.5917C29.8462 14.5917 29.3781 14.2377 29.3781 13.6954C29.3781 13.136 29.8291 12.8106 30.6911 12.7592L32.2267 12.6622V13.1645C32.2267 13.998 31.5188 14.5917 30.5826 14.5917ZM35.2636 17.9997C36.6108 17.9997 37.2444 17.4859 37.7982 15.9275L40.2243 9.1229H38.82L37.1931 14.3805H37.1645L35.5376 9.1229H34.0933L36.4338 15.6021L36.3082 15.996C36.097 16.6639 35.7545 16.9207 35.1437 16.9207C35.0352 16.9207 34.824 16.9093 34.7384 16.8979V17.9654C34.8183 17.9882 35.1608 17.9997 35.2636 17.9997Z" fill="black"/>
</svg>
