<svg width="20" height="20" viewBox="0 0 20 20" fill="none" xmlns="http://www.w3.org/2000/svg">
<path d="M19.803 10.2397C19.803 9.56436 19.7376 8.86721 19.6287 8.21362H10.1953V12.0698H15.5983C15.3804 13.3116 14.6615 14.4009 13.5939 15.098L16.8183 17.6034C18.7137 15.8387 19.803 13.268 19.803 10.2397Z" fill="#4280EF"/>
<path d="M10.194 20.0001C12.8955 20.0001 15.1612 19.1068 16.817 17.5818L13.5926 15.0982C12.6994 15.7082 11.5447 16.0568 10.194 16.0568C7.57968 16.0568 5.37929 14.2921 4.5732 11.9392L1.26172 14.4882C2.96103 17.865 6.40323 20.0001 10.194 20.0001Z" fill="#34A353"/>
<path d="M4.57277 11.9174C4.15884 10.6756 4.15884 9.32489 4.57277 8.08309L1.26129 5.51233C-0.154805 8.34452 -0.154805 11.6778 1.26129 14.4882L4.57277 11.9174Z" fill="#F6B704"/>
<path d="M10.194 3.96545C11.6101 3.94366 13.0044 4.48831 14.0284 5.46869L16.8823 2.59292C15.0741 0.893609 12.6776 -0.0214058 10.194 0.00038023C6.40323 0.00038023 2.96103 2.13542 1.26172 5.51226L4.5732 8.08301C5.37929 5.70833 7.57968 3.96545 10.194 3.96545Z" fill="#E54335"/>
</svg>
