<svg width="19" height="19" viewBox="0 0 19 19" fill="none" xmlns="http://www.w3.org/2000/svg">
<path fill-rule="evenodd" clip-rule="evenodd" d="M0.824027 7.43905C0.75 7.70352 0.75 7.9907 0.75 8.56505V15.8C0.75 16.9201 0.75 17.4801 0.967987 17.908C1.15973 18.2843 1.46569 18.5903 1.84202 18.782C2.26984 19 2.8299 19 3.95 19H15.55C16.6701 19 17.2302 19 17.658 18.782C18.0343 18.5903 18.3403 18.2843 18.532 17.908C18.75 17.4801 18.75 16.9201 18.75 15.8V8.56505C18.75 7.9907 18.75 7.70352 18.676 7.43905C18.6104 7.20478 18.5026 6.98444 18.358 6.78886C18.1947 6.56806 17.968 6.39175 17.5146 6.03915L17.5146 6.03913L10.7323 0.763999C10.381 0.490746 10.2053 0.354119 10.0113 0.301601C9.8402 0.255261 9.6598 0.255261 9.48865 0.301601C9.29468 0.354119 9.11902 0.490746 8.7677 0.763999L1.98539 6.03912C1.53202 6.39175 1.30534 6.56806 1.14203 6.78886C0.997366 6.98444 0.889601 7.20478 0.824027 7.43905ZM5.75 14.25C5.33579 14.25 5 14.5858 5 15C5 15.4142 5.33579 15.75 5.75 15.75H13.75C14.1642 15.75 14.5 15.4142 14.5 15C14.5 14.5858 14.1642 14.25 13.75 14.25H5.75Z" fill="#A0A0A0"/>
</svg>
