<svg width="20" height="20" viewBox="0 0 20 20" fill="none" xmlns="http://www.w3.org/2000/svg">
<path d="M0 19V1C0 0.447715 0.447715 0 1 0H3.16048C3.71276 0 4.16047 0.447715 4.16047 1V19C4.16047 19.5523 3.71276 20 3.16047 20H1C0.447715 20 0 19.5523 0 19Z" fill="#A0A0A0"/>
<path d="M6.42969 19V1C6.42969 0.447715 6.8774 0 7.42969 0H9.59016C10.1424 0 10.5902 0.447715 10.5902 1V19C10.5902 19.5523 10.1424 20 9.59016 20H7.42969C6.8774 20 6.42969 19.5523 6.42969 19Z" fill="#A0A0A0"/>
<path d="M15.4578 19.0345L12.1505 6.33466C12.0113 5.80021 12.3303 5.2488 12.863 5.10307L14.9547 4.53083C15.4874 4.3851 16.0321 4.70022 16.1713 5.23468L19.4787 17.9345C19.6179 18.4689 19.2988 19.0203 18.7661 19.1661L16.6744 19.7383C16.1417 19.884 15.597 19.5689 15.4578 19.0345Z" fill="#A0A0A0"/>
</svg>
