<svg width="24" height="25" viewBox="0 0 24 25" fill="none" xmlns="http://www.w3.org/2000/svg">
<path d="M9 18.0743V6.75576C9 6.27422 9 6.03345 9.0876 5.83817C9.16482 5.66604 9.28917 5.51926 9.44627 5.41479C9.62448 5.29627 9.86198 5.25669 10.337 5.17753L19.137 3.71086C19.7779 3.60403 20.0984 3.55062 20.3482 3.64339C20.5674 3.7248 20.7511 3.88044 20.8674 4.08325C21 4.31437 21 4.63928 21 5.28909V16.4797" stroke="#D0D0D0" stroke-width="1.89293" stroke-linecap="round" stroke-linejoin="round"/>
<path d="M6.94922 21.4004C8.60607 21.4004 9.94922 20.0572 9.94922 18.4004C9.94922 16.7435 8.60607 15.4004 6.94922 15.4004C5.29236 15.4004 3.94922 16.7435 3.94922 18.4004C3.94922 20.0572 5.29236 21.4004 6.94922 21.4004Z" fill="#D0D0D0"/>
<path d="M18.9492 19.4004C20.6061 19.4004 21.9492 18.0572 21.9492 16.4004C21.9492 14.7435 20.6061 13.4004 18.9492 13.4004C17.2924 13.4004 15.9492 14.7435 15.9492 16.4004C15.9492 18.0572 17.2924 19.4004 18.9492 19.4004Z" fill="#D0D0D0"/>
</svg>
