<svg width="22" height="22" viewBox="0 0 22 22" fill="none" xmlns="http://www.w3.org/2000/svg">
<path fill-rule="evenodd" clip-rule="evenodd" d="M18.6974 1.25618C18.3015 0.871037 17.6684 0.879709 17.2833 1.27555C16.8981 1.67138 16.9068 2.30449 17.3026 2.68963L18.5382 3.89182H1.2C0.537261 3.89182 0 4.42908 0 5.09182V9.51344C0 10.0657 0.447715 10.5134 1 10.5134C1.55228 10.5134 2 10.0657 2 9.51344V5.89182H18.5382L17.3026 7.09401C16.9068 7.47915 16.8981 8.11226 17.2833 8.50809C17.6684 8.90393 18.3015 8.9126 18.6974 8.52746L21.55 5.75189C22.0343 5.28075 22.0343 4.50289 21.55 4.03175L18.6974 1.25618Z" fill="white"/>
<path fill-rule="evenodd" clip-rule="evenodd" d="M3.46094 16.135H19.9991V12.5134C19.9991 11.9611 20.4469 11.5134 20.9991 11.5134C21.5514 11.5134 21.9991 11.9611 21.9991 12.5134V16.9351C21.9991 17.5978 21.4619 18.135 20.7991 18.135H3.46088L4.69649 19.3373C5.09233 19.7224 5.101 20.3555 4.71587 20.7514C4.33073 21.1472 3.69762 21.1559 3.30178 20.7707L0.449112 17.9951C-0.0351206 17.524 -0.0351206 16.7462 0.449112 16.275L3.30178 13.4994C3.69762 13.1143 4.33073 13.123 4.71587 13.5188C5.101 13.9146 5.09233 14.5477 4.69649 14.9329L3.46094 16.135Z" fill="white"/>
</svg>
