<svg width="21" height="22" viewBox="0 0 21 22" fill="none" xmlns="http://www.w3.org/2000/svg">
<path d="M20.332 4.772C20.332 3.35107 20.332 2.6406 20.0408 2.2757C19.7874 1.95835 19.4033 1.77373 18.9973 1.77417C18.5304 1.77467 17.9756 2.2185 16.866 3.10615L9.08102 9.33415C8.36922 9.90358 8.01332 10.1883 7.88447 10.5323C7.7715 10.8339 7.7715 11.1661 7.88447 11.4677C8.01332 11.8117 8.36922 12.0964 9.08102 12.6659L16.866 18.8939C17.9756 19.7815 18.5304 20.2253 18.9973 20.2258C19.4033 20.2263 19.7874 20.0417 20.0408 19.7243C20.332 19.3594 20.332 18.6489 20.332 17.228V4.772Z" fill="#A0A0A0"/>
<path d="M1.66797 1.6665V20.3332" stroke="#A0A0A0" stroke-width="3" stroke-linecap="round" stroke-linejoin="round"/>
</svg>
