<svg width="21" height="22" viewBox="0 0 21 22" fill="none" xmlns="http://www.w3.org/2000/svg">
<path d="M0.664062 4.772C0.664062 3.35107 0.664062 2.6406 0.955339 2.2757C1.20866 1.95835 1.59278 1.77373 1.99884 1.77417C2.46573 1.77467 3.02052 2.2185 4.13008 3.10615L11.9151 9.33415C12.6269 9.90358 12.9828 10.1883 13.1116 10.5323C13.2246 10.8339 13.2246 11.1661 13.1116 11.4677C12.9828 11.8117 12.6269 12.0964 11.9151 12.6659L4.13008 18.8939C3.02052 19.7815 2.46573 20.2253 1.99884 20.2258C1.59278 20.2263 1.20866 20.0417 0.955339 19.7243C0.664062 19.3594 0.664062 18.6489 0.664062 17.228V4.772Z" fill="white"/>
<path d="M19.3281 1.6665V20.3332" stroke="white" stroke-width="3" stroke-linecap="round" stroke-linejoin="round"/>
</svg>
