<svg width="19" height="20" viewBox="0 0 19 20" fill="none" xmlns="http://www.w3.org/2000/svg">
<path d="M5.83073 18.3337V9.16699M1.66406 10.8337V16.667C1.66406 17.5875 2.41025 18.3337 3.33073 18.3337H14.5193C15.7532 18.3337 16.8026 17.4334 16.9902 16.2138L17.8876 10.3805C18.1206 8.86607 16.9489 7.50033 15.4167 7.50033H12.4974C12.0372 7.50033 11.6641 7.12723 11.6641 6.66699V3.72186C11.6641 2.58699 10.7441 1.66699 9.6092 1.66699C9.33851 1.66699 9.09321 1.8264 8.98328 2.07376L6.05068 8.67211C5.91693 8.97305 5.61849 9.16699 5.28917 9.16699H3.33073C2.41025 9.16699 1.66406 9.91318 1.66406 10.8337Z" stroke="#FAFAFA" stroke-width="1.5" stroke-linecap="round" stroke-linejoin="round"/>
</svg>
