<svg width="12" height="12" viewBox="0 0 12 12" fill="none" xmlns="http://www.w3.org/2000/svg">
<path fill-rule="evenodd" clip-rule="evenodd" d="M10.0808 2.55812C9.79044 2.43756 9.55987 2.20664 9.43975 1.91612L9.43988 1.91788L9.01807 0.899521C8.89771 0.609059 8.66692 0.378294 8.37645 0.257973C8.08598 0.137652 7.75962 0.137627 7.46913 0.257904L6.45068 0.677961C6.16032 0.798446 5.83401 0.798691 5.54347 0.678643L4.52618 0.257251C4.23565 0.136906 3.90922 0.136906 3.61869 0.257251C3.32817 0.377595 3.09734 0.608427 2.977 0.898965L2.55532 1.91703C2.43468 2.20703 2.2039 2.43731 1.91365 2.55733L0.896359 2.97872C0.752426 3.03829 0.621641 3.12563 0.511477 3.23576C0.401313 3.3459 0.313928 3.47666 0.254317 3.62058C0.194707 3.7645 0.164038 3.91875 0.164063 4.07453C0.164088 4.2303 0.194806 4.38455 0.254463 4.52845L0.675235 5.54724C0.795716 5.83761 0.79596 6.16393 0.675916 6.45448L0.25454 7.47181C0.134446 7.7623 0.134609 8.08859 0.254994 8.37896C0.375379 8.66934 0.606133 8.90002 0.896533 9.02031L1.91456 9.44201C2.20488 9.56257 2.43545 9.79349 2.55557 10.084L2.97737 11.1024C3.09779 11.3926 3.32849 11.6232 3.61878 11.7434C3.90907 11.8636 4.23522 11.8637 4.52558 11.7437L5.54361 11.3226C5.83396 11.2021 6.16028 11.2019 6.45081 11.3219L7.4681 11.7433C7.75863 11.8636 8.08506 11.8636 8.37559 11.7433C8.66612 11.623 8.89694 11.3921 9.01728 11.1016L9.43896 10.0835C9.55952 9.79319 9.79043 9.56262 10.0809 9.4425L11.0982 9.0211C11.2422 8.96154 11.3729 8.87419 11.4831 8.76406C11.5933 8.65393 11.6807 8.52316 11.7403 8.37924C11.7999 8.23533 11.8305 8.08107 11.8305 7.92529C11.8305 7.76952 11.7998 7.61527 11.7401 7.47137L11.3195 6.45434C11.1985 6.16382 11.1987 5.83704 11.3191 5.54638L11.7405 4.52905C11.8608 4.23851 11.8608 3.91206 11.7405 3.62153C11.6201 3.33099 11.3893 3.10016 11.0988 2.97981L10.0808 2.55812ZM8.572 5.07232C8.86489 4.77943 8.86489 4.30456 8.572 4.01166C8.2791 3.71877 7.80423 3.71877 7.51134 4.01166L5.41667 6.10633L4.78033 5.47C4.48744 5.1771 4.01256 5.1771 3.71967 5.47C3.42678 5.76289 3.42678 6.23776 3.71967 6.53066L4.88634 7.69732C5.17923 7.99022 5.6541 7.99022 5.947 7.69732L8.572 5.07232Z" fill="#215FFF"/>
</svg>
